<?xml version="1.0" encoding="UTF-8"?>
<svg width="31px" height="29px" viewBox="0 0 31 29" version="1.1" xmlns="http://www.w3.org/2000/svg" xmlns:xlink="http://www.w3.org/1999/xlink">
    <title>Group 26</title>
    <defs>
        <polygon id="path-1" points="0 0.0545907738 31 0.0545907738 31 27.7916667 0 27.7916667"></polygon>
    </defs>
    <g id="Page-1" stroke="none" stroke-width="1" fill="none" fill-rule="evenodd">
        <g id="model-" transform="translate(-576.000000, -804.000000)">
            <g id="Group-26" transform="translate(576.000000, 804.000000)">
                <g id="Group-3">
                    <mask id="mask-2" fill="white">
                        <use xlink:href="#path-1"></use>
                    </mask>
                    <g id="Clip-2"></g>
                    <path d="M29.4499939,16.994213 L28.4166404,16.994213 L2.58334746,16.994213 L1.54999395,16.994213 C1.23999395,16.994213 1.03334746,16.7949421 1.03334746,16.4960649 C1.03334746,16.1971293 1.23999395,15.9978584 1.54999395,15.9978584 L2.06664043,15.9978584 L11.8832869,15.9978584 L29.4499939,15.9978584 C29.7599939,15.9978584 29.9666404,16.1971293 29.9666404,16.4960649 C29.9666404,16.7949421 29.7599939,16.994213 29.4499939,16.994213 L29.4499939,16.994213 Z M26.5049939,23.0725891 C26.1949939,24.1687251 25.1616404,24.9658672 23.9733475,24.9658672 L7.12999395,24.9658672 C5.94164043,24.9658672 4.90834746,24.1687251 4.59834746,23.0725891 L3.25499395,17.9906844 L27.7449939,17.9906844 L26.5049939,23.0725891 Z M23.468992,5.71354045 L17.7667479,5.71354045 C17.9197498,5.53143497 18.1012693,5.35633579 18.3080975,5.1916293 L18.3080369,5.1916293 C19.7327654,4.05678345 21.5029139,4.05666668 22.9277029,5.1916293 C23.1344705,5.35633579 23.31599,5.53143497 23.468992,5.71354045 L23.468992,5.71354045 Z M29.4499939,15.0013286 L28.9333475,15.0013286 L28.9333475,4.59831225 C28.9333475,2.16893523 26.9538279,0.136056556 24.435865,0.0569437237 C22.2694373,-0.0110757966 20.6504744,1.37062545 20.2482615,3.4840766 C19.3677283,3.55927758 18.499365,3.90322865 17.7296326,4.51639689 L17.7296326,4.51639689 C17.4170896,4.76541256 17.148867,5.03696517 16.9323514,5.3236981 C16.745867,5.57072865 16.7203768,5.92583142 16.8689588,6.20736801 C16.995199,6.44657485 17.2240662,6.58932827 17.4810877,6.58932827 L23.7544705,6.58932827 C24.0117947,6.58932827 24.2401775,6.44704194 24.365449,6.20882765 C24.5147576,5.92483886 24.4870877,5.56553231 24.2966072,5.31476506 C24.0813631,5.03136013 23.8153807,4.7627852 23.5061072,4.51639689 C22.8274979,3.97580227 22.0719939,3.64527995 21.2992342,3.5229032 C21.6117166,2.1868013 22.566783,1.06842026 24.2438709,1.05119644 C26.2546326,1.03046946 27.8999939,2.64752408 27.8999939,4.58657669 L27.8999939,15.0012702 L12.3500428,15.0012702 L11.3149939,15.0013286 L2.68664043,15.0013286 L1.60000566,15.0012702 L1.57639238,15.0012702 C0.71347832,15.0012702 -0.00339667969,15.6703721 -1.80331215e-05,16.5024873 C0.00344511719,17.3462797 0.673880664,17.990626 1.54999395,17.990626 L2.17090215,17.990626 L3.56499395,23.3216632 C3.97834746,24.8661442 5.42499395,25.9623386 7.07834746,25.9623386 L7.49170098,25.9623386 L6.6735916,27.5633955 C6.61988652,27.6686068 6.69926348,27.7916842 6.8208416,27.7916842 L7.55043145,27.7916842 C7.61255254,27.7916842 7.66934551,27.7578788 7.69719707,27.7043389 L8.60249395,25.9623386 L22.9399939,25.9623386 L23.8578846,27.7373853 C23.8750799,27.7706069 23.9103182,27.7916842 23.9488865,27.7916842 L24.8268162,27.7916842 C24.9021971,27.7916842 24.9513611,27.7153155 24.9178787,27.6501569 L24.0494549,25.9596528 C25.6490428,25.9048285 27.0323572,24.8274927 27.4349939,23.3715247 L28.8421033,17.990626 L29.4235955,17.990626 C30.2865096,17.990626 31.003324,17.3215825 31.0000055,16.4894673 C30.9966033,15.6457333 30.3261072,15.0013286 29.4499939,15.0013286 L29.4499939,15.0013286 Z" id="Fill-1" fill="#4A4A4A" mask="url(#mask-2)"></path>
                </g>
                <path d="M19.1088027,7.88467219 L19.1088027,7.11532781 C19.1088027,7.0515636 19.060123,7 19.0000605,7 C18.9398164,7 18.8911973,7.0515636 18.8911973,7.11532781 L18.8911973,7.88467219 C18.8911973,7.94850061 18.9398164,8 19.0000605,8 C19.060002,8 19.1088027,7.94824376 19.1088027,7.88467219" id="Fill-4" fill="#4A4A4A"></path>
                <path d="M20.1088027,7.88467219 L20.1088027,7.11532781 C20.1088027,7.0515636 20.060123,7 20.0000605,7 C19.939877,7 19.8911973,7.0515636 19.8911973,7.11532781 L19.8911973,7.88467219 C19.8911973,7.94850061 19.939877,8 20.0000605,8 C20.060123,8 20.1088027,7.94824376 20.1088027,7.88467219" id="Fill-6" fill="#4A4A4A"></path>
                <path d="M20.1088633,7.88467219 L20.1088633,7.11532781 C20.1088633,7.0515636 20.0600625,7 20,7 C19.9398164,7 19.8911367,7.0515636 19.8911367,7.11532781 L19.8911367,7.88467219 C19.8911367,7.94850061 19.9398164,8 20,8 C20.0600625,8 20.1088633,7.94824376 20.1088633,7.88467219" id="Fill-8" fill="#4A4A4A"></path>
                <path d="M21.1088027,7.88467219 L21.1088027,7.11532781 C21.1088027,7.0515636 21.060002,7 20.9999395,7 C20.9397559,7 20.8911973,7.0515636 20.8911973,7.11532781 L20.8911973,7.88467219 C20.8911973,7.94850061 20.9397559,8 20.9999395,8 C21.060002,8 21.1088027,7.94824376 21.1088027,7.88467219" id="Fill-10" fill="#4A4A4A"></path>
                <path d="M22.1088027,7.88467219 L22.1088027,7.11532781 C22.1088027,7.0515636 22.060123,7 22.0000605,7 C21.9398164,7 21.8911973,7.0515636 21.8911973,7.11532781 L21.8911973,7.88467219 C21.8911973,7.94850061 21.9398164,8 22.0000605,8 C22.060123,8 22.1088027,7.94824376 22.1088027,7.88467219" id="Fill-12" fill="#4A4A4A"></path>
                <path d="M24.1087725,7.88467219 L24.1087725,7.11532781 C24.1087725,7.0515636 24.0601533,7 23.9999697,7 C23.9397256,7 23.8912275,7.0515636 23.8912275,7.11532781 L23.8912275,7.88467219 C23.8912275,7.94850061 23.9397256,8 23.9999697,8 C24.0601533,8 24.1087725,7.94824376 24.1087725,7.88467219" id="Fill-14" fill="#4A4A4A"></path>
                <path d="M19.108833,9.88467219 L19.108833,9.11532781 C19.108833,9.05143518 19.0600322,9 19.0000303,9 C18.9397861,9 18.891167,9.05143518 18.891167,9.11532781 L18.891167,9.88467219 C18.891167,9.94850061 18.9397861,10 19.0000303,10 C19.0600322,10 19.108833,9.94824376 19.108833,9.88467219" id="Fill-16" fill="#4A4A4A"></path>
                <path d="M20.1087422,9.88467219 L20.1087422,9.11532781 C20.1087422,9.05143518 20.0601836,9 20,9 C19.9398164,9 19.8912578,9.05143518 19.8912578,9.11532781 L19.8912578,9.88467219 C19.8912578,9.94850061 19.9398164,10 20,10 C20.0601836,10 20.1087422,9.94824376 20.1087422,9.88467219" id="Fill-18" fill="#4A4A4A"></path>
                <path d="M20.1088027,9.88467219 L20.1088027,9.11532781 C20.1088027,9.05143518 20.0602441,9 20.0000605,9 C19.9398164,9 19.8911973,9.05143518 19.8911973,9.11532781 L19.8911973,9.88467219 C19.8911973,9.94850061 19.9398164,10 20.0000605,10 C20.0602441,10 20.1088027,9.94824376 20.1088027,9.88467219" id="Fill-20" fill="#4A4A4A"></path>
                <path d="M21.1088027,9.88467219 L21.1088027,9.11532781 C21.1088027,9.05143518 21.060123,9 20.9999395,9 C20.9396348,9 20.8911973,9.05143518 20.8911973,9.11532781 L20.8911973,9.88467219 C20.8911973,9.94850061 20.9396348,10 20.9999395,10 C21.060123,10 21.1088027,9.94824376 21.1088027,9.88467219" id="Fill-22" fill="#4A4A4A"></path>
                <path d="M22.1087422,9.88467219 L22.1087422,9.11532781 C22.1087422,9.05143518 22.0601836,9 22,9 C21.9398164,9 21.8912578,9.05143518 21.8912578,9.11532781 L21.8912578,9.88467219 C21.8912578,9.94850061 21.9398164,10 22,10 C22.0601836,10 22.1087422,9.94824376 22.1087422,9.88467219" id="Fill-24" fill="#4A4A4A"></path>
            </g>
        </g>
    </g>
</svg>