<?xml version="1.0" encoding="UTF-8"?>
<svg width="35px" height="21px" viewBox="0 0 35 21" version="1.1" xmlns="http://www.w3.org/2000/svg" xmlns:xlink="http://www.w3.org/1999/xlink">
    <title>Group 3 Copy 2</title>
    <defs>
        <polygon id="path-1" points="0 1 35 1 35 20 0 20"></polygon>
    </defs>
    <g id="Page-1" stroke="none" stroke-width="1" fill="none" fill-rule="evenodd">
        <g id="model-" transform="translate(-476.000000, -813.000000)">
            <g id="Group-3-Copy-2" transform="translate(476.000000, 813.000000)">
                <mask id="mask-2" fill="white">
                    <use xlink:href="#path-1"></use>
                </mask>
                <g id="Clip-2"></g>
                <path d="M34.1507633,20 C34.1254549,20 34.0945225,19.9972034 34.0720261,19.9916102 C33.9764167,19.9692376 33.8976795,19.9133059 33.8498748,19.8294083 L32.4101093,17.5082426 L2.58277945,17.5082426 L1.14301393,19.8294083 C1.09239717,19.9133059 1.01366,19.9692376 0.920862609,19.9916102 C0.892742189,19.9972034 0.864621768,20 0.836501348,20 C0.771824381,20 0.707147415,19.9804239 0.650906574,19.9468649 L0.170047386,19.6504268 C0.00132486443,19.5497498 -0.0492918922,19.3316161 0.051941621,19.163821 L1.07833696,17.5082426 L0.597477775,17.5082426 C0.400634833,17.5082426 0.240348437,17.3516338 0.240348437,17.1530762 L0.240348437,11.6410068 C0.240348437,11.4424492 0.400634833,11.2858404 0.597477775,11.2858404 L1.89664119,11.2858404 L1.89664119,10.5475419 L1.89664119,10.5027966 L1.89664119,1.35516632 C1.89664119,1.16220194 2.05692759,1 2.25377053,1 L32.9837659,1 C33.1777968,1 33.3408952,1.16220194 33.3408952,1.35516632 L33.3408952,11.2858404 L34.6428707,11.2858404 C34.8369016,11.2858404 35,11.4424492 35,11.6410068 L35,17.1530762 C35,17.3516338 34.8369016,17.5082426 34.6428707,17.5082426 L33.9117397,17.5082426 L34.9381351,19.163821 C35.0393686,19.3316161 34.9915639,19.5497498 34.8200293,19.6504268 L34.3391701,19.9468649 C34.2829293,19.9804239 34.2154403,20 34.1507633,20 L34.1507633,20 Z M1.5226396,16.2357963 L33.7177088,16.2357963 L33.7177088,12.5582867 L1.5226396,12.5582867 L1.5226396,16.2357963 Z M32.058604,11.2858404 L32.058604,10.6705917 C32.058604,8.85001472 30.5682218,7.36782455 28.7347704,7.36782455 L21.5781234,7.36782455 C19.8065369,7.36782455 18.3498991,8.74933765 18.2627258,10.5083898 C18.2571017,10.5727112 18.2571017,10.6202532 18.2571017,10.6705917 L18.2571017,11.2858404 L32.058604,11.2858404 Z M16.9776226,11.2858404 L16.9776226,10.4972034 C16.9523142,8.70459229 15.461932,7.24197822 13.656601,7.24197822 L6.49714196,7.24197822 C4.67775076,7.24197822 3.18736849,8.71857521 3.17612032,10.5279659 L3.17612032,11.2858404 L16.9776226,11.2858404 Z M13.656601,5.96953194 C15.3213299,5.96953194 16.8454566,6.87842214 17.6525127,8.28790109 C18.476441,6.93715043 19.947139,6.09537827 21.5781234,6.09537827 L28.7375824,6.09537827 C30.0001893,6.09537827 31.2009312,6.6211363 32.0614161,7.51604357 L32.0614161,2.27524286 L3.17612032,2.27524286 L3.17612032,7.38740065 C4.03660518,6.49808655 5.23734713,5.96953194 6.49714196,5.96953194 L13.656601,5.96953194 Z" id="Fill-1" fill="#4A4A4A" mask="url(#mask-2)"></path>
            </g>
        </g>
    </g>
</svg>